HIERARCHY
ROOT Hips
{
	OFFSET 0.00000 0.00000 0.00000
	CHANNELS 6 Xposition Yposition Zposition Zrotation Yrotation Xrotation 
	JOINT LHipJoint
	{
		OFFSET 0 0 0
		CHANNELS 3 Zrotation Yrotation Xrotation
		JOINT LeftUpLeg
		{
			OFFSET 1.75344 -1.53157 0.77399
			CHANNELS 3 Zrotation Yrotation Xrotation
			JOINT LeftLeg
			{
				OFFSET 2.25415 -6.19323 0.00000
				CHANNELS 3 Zrotation Yrotation Xrotation
				JOINT LeftFoot
				{
					OFFSET 2.30342 -6.32861 0.00000
					CHANNELS 3 Zrotation Yrotation Xrotation
					JOINT LeftToeBase
					{
						OFFSET 0.10958 -0.30108 1.49206
						CHANNELS 3 Zrotation Yrotation Xrotation
						End Site
						{
							OFFSET 0.00000 -0.00000 0.77783
						}
					}
				}
			}
		}
	}
	JOINT RHipJoint
	{
		OFFSET 0 0 0
		CHANNELS 3 Zrotation Yrotation Xrotation
		JOINT RightUpLeg
		{
			OFFSET -1.81912 -1.53156 0.77399
			CHANNELS 3 Zrotation Yrotation Xrotation
			JOINT RightLeg
			{
				OFFSET -2.22882 -6.12365 0.00000
				CHANNELS 3 Zrotation Yrotation Xrotation
				JOINT RightFoot
				{
					OFFSET -2.21943 -6.09785 0.00000
					CHANNELS 3 Zrotation Yrotation Xrotation
					JOINT RightToeBase
					{
						OFFSET -0.18931 -0.52012 1.59379
						CHANNELS 3 Zrotation Yrotation Xrotation
						End Site
						{
							OFFSET -0.00000 -0.00000 0.84686
						}
					}
				}
			}
		}
	}
	JOINT LowerBack
	{
		OFFSET 0 0 0
		CHANNELS 3 Zrotation Yrotation Xrotation
		JOINT Spine
		{
			OFFSET -0.00200 1.66634 -0.14248
			CHANNELS 3 Zrotation Yrotation Xrotation
			JOINT Spine1
			{
				OFFSET -0.00875 1.64542 0.09514
				CHANNELS 3 Zrotation Yrotation Xrotation
				JOINT Neck
				{
					OFFSET 0 0 0
					CHANNELS 3 Zrotation Yrotation Xrotation
					JOINT Neck1
					{
						OFFSET 0.02257 1.59605 0.00839
						CHANNELS 3 Zrotation Yrotation Xrotation
						JOINT Head
						{
							OFFSET -0.10214 1.57530 -0.23335
							CHANNELS 3 Zrotation Yrotation Xrotation
							End Site
							{
								OFFSET -0.03588 1.60717 -0.08062
							}
						}
					}
				}
				JOINT LeftShoulder
				{
					OFFSET 0 0 0
					CHANNELS 3 Zrotation Yrotation Xrotation
					JOINT LeftArm
					{
						OFFSET 2.54983 1.10186 0.40078
						CHANNELS 3 Zrotation Yrotation Xrotation
						JOINT LeftForeArm
						{
							OFFSET 4.28840 -0.00000 0.00000
							CHANNELS 3 Zrotation Yrotation Xrotation
							JOINT LeftHand
							{
								OFFSET 3.06552 -0.00000 -0.00000
								CHANNELS 3 Zrotation Yrotation Xrotation
								JOINT LeftFingerBase
								{
									OFFSET 0 0 0
									CHANNELS 3 Zrotation Yrotation Xrotation
									JOINT LeftHandIndex1
									{
										OFFSET 0.75304 -0.00000 0.00000
										CHANNELS 3 Zrotation Yrotation Xrotation
										End Site
										{
											OFFSET 0.60712 -0.00000 0.00000
										}
									}
								}
								JOINT LThumb
								{
									OFFSET 0 0 0
									CHANNELS 3 Zrotation Yrotation Xrotation
									End Site
									{
										OFFSET 0.61639 -0.00000 0.61639
									}
								}
							}
						}
					}
				}
				JOINT RightShoulder
				{
					OFFSET 0 0 0
					CHANNELS 3 Zrotation Yrotation Xrotation
					JOINT RightArm
					{
						OFFSET -2.60909 1.35448 0.21802
						CHANNELS 3 Zrotation Yrotation Xrotation
						JOINT RightForeArm
						{
							OFFSET -4.52172 -0.00000 -0.00000
							CHANNELS 3 Zrotation Yrotation Xrotation
							JOINT RightHand
							{
								OFFSET -2.89140 -0.00000 0.00000
								CHANNELS 3 Zrotation Yrotation Xrotation
								JOINT RightFingerBase
								{
									OFFSET 0 0 0
									CHANNELS 3 Zrotation Yrotation Xrotation
									JOINT RightHandIndex1
									{
										OFFSET -0.68054 -0.00000 0.00000
										CHANNELS 3 Zrotation Yrotation Xrotation
										End Site
										{
											OFFSET -0.54867 -0.00000 0.00000
										}
									}
								}
								JOINT RThumb
								{
									OFFSET 0 0 0
									CHANNELS 3 Zrotation Yrotation Xrotation
									End Site
									{
										OFFSET -0.55705 -0.00000 0.55705
									}
								}
							}
						}
					}
				}
			}
		}
	}
}
MOTION
Frames: 7
Frame Time: .0083333
8.7984 15.5121 22.5387 0 0 0 0 0 0 -21 0 0 0 0 0 0 0 0 0 0 0 0 0 0 21 0 0 0 0 0 0 0 0 0 0 0 0 0 0 0 0 0 0 0 0 0 0 -16 0 0 21 0 0 11 0 0 0 -8 0 0 0 0 0 0 0 0 0 0 0 0 0 0 0 0 0 0 0 0 8 0 0 0 0 0 0 0 0 0 0 0 0 0 0 0 0 0
8.7984 15.5121 22.5387 -179.1160 8.2159 179.4790 0.0000 0.0000 0.0000 -26.3664 -21.2684 5.0175 1.3350 7.3161 20.6553 0.7226 15.4227 -28.0412 2.3853 -9.6262 -27.7746 0.0000 0.0000 0.0000 27.0051 18.3293 7.3502 -0.6579 -5.1877 14.4448 1.0189 -21.9814 -22.4917 -0.0518 1.4690 -4.0402 0.8953 0.9660 7.8263 0.9150 1.5539 -4.2697 0.2226 0.7660 -8.9253 -6.9576 -0.4495 -6.2764 5.9552 -0.3541 10.8527 2.9609 -0.0466 4.2913 -0.0000 -0.0000 0.0000 -91.3973 9.6126 9.5844 22.1228 -33.1155 -6.6528 -0.0000 0.0000 -2.1567 -38.9060 -23.8195 18.0529 -7.1250 0.0000 -0.0000 -36.9800 2.5477 46.8332 -0.0000 -0.0000 0.0000 83.9909 -12.9621 42.2037 -22.2275 33.2332 -6.7101 0.0000 0.0000 16.4646 -19.4455 -44.9190 13.9979 7.1250 -0.0000 -0.0000 34.2900 -74.2614 -24.3827
8.8006 15.5097 22.5335 -179.0780 7.8207 179.5100 0.0000 0.0000 0.0000 -26.2966 -21.3247 4.9336 1.3447 7.3416 20.7315 0.6185 15.6992 -27.5725 2.8580 -10.4615 -30.4847 0.0000 0.0000 0.0000 27.0479 18.1363 7.4121 -0.6437 -5.1328 14.2878 0.9962 -22.0292 -22.8406 -0.0218 0.9536 -2.6210 1.0310 0.8557 7.7014 0.9172 1.4181 -4.2172 0.1722 0.6925 -8.7916 -7.0782 -0.4832 -6.2610 5.9867 -0.3961 10.6133 2.9855 -0.0748 4.2190 -0.0000 -0.0000 0.0000 -91.5909 10.5138 13.5746 19.4666 -29.9944 -5.2621 -0.0000 -0.0000 11.2791 0.0527 -40.6689 -0.0344 -7.1250 0.0000 -0.0000 -17.9852 -8.9666 21.5750 -0.0000 -0.0000 0.0000 83.7991 -12.9599 42.3972 -22.2111 33.2147 -6.7011 0.0000 0.0000 16.3561 -17.2731 -46.2397 12.6575 7.1250 -0.0000 -0.0000 40.1365 -74.3892 -28.9340
8.8042 15.5150 22.5306 -179.0370 7.9950 179.7840 0.0000 0.0000 0.0000 -26.1697 -21.4552 4.6835 1.3438 7.3394 20.7248 0.6019 15.8717 -27.6397 2.8970 -10.5264 -30.6988 0.0000 0.0000 0.0000 27.0007 18.2722 7.1951 -0.6314 -5.0843 14.1492 1.0168 -22.0046 -22.5641 -0.0311 1.1379 -3.1284 1.0428 0.9122 7.3921 0.9261 1.4962 -4.2543 0.1682 0.7334 -8.6500 -7.0794 -0.4887 -6.2857 6.0351 -0.4081 10.5806 2.9998 -0.0784 4.2139 0.0000 -0.0000 0.0000 -91.4424 10.5812 13.6453 19.1509 -29.6057 -5.1052 -0.0000 -0.0000 11.8580 -0.6069 -41.1105 0.3990 -7.1250 0.0000 -0.0000 -18.3274 -9.3282 22.1237 0.0000 -0.0000 0.0000 83.6987 -12.9049 42.5152 -22.1478 33.1437 -6.6665 0.0000 0.0000 16.4416 -15.8048 -47.0477 11.7049 7.1250 -0.0000 -0.0000 43.8723 -74.3675 -31.8359
8.8092 15.5174 22.5267 -178.9940 8.0570 179.8970 0.0000 0.0000 0.0000 -26.0957 -21.5894 4.6196 1.3420 7.3347 20.7109 0.6040 15.9407 -27.7328 2.8865 -10.5090 -30.6414 0.0000 0.0000 0.0000 27.0420 18.3533 7.1788 -0.6207 -5.0420 14.0285 1.0579 -22.1203 -22.3567 -0.0382 1.2621 -3.4703 1.0454 0.9088 7.1973 0.9377 1.4906 -4.2433 0.1833 0.7325 -8.5241 -7.1468 -0.4887 -6.3137 6.1978 -0.4165 10.6023 3.0614 -0.0754 4.2256 -0.0000 0.0000 0.0000 -91.2726 10.7862 14.5905 19.1748 -29.6354 -5.1170 -0.0000 -0.0000 12.3630 0.3825 -39.2711 -0.2421 -7.1250 0.0000 -0.0000 -17.7575 -7.6665 20.9337 -0.0000 0.0000 0.0000 83.6205 -12.7615 42.6059 -22.0003 32.9773 -6.5860 0.0000 0.0000 16.6538 -14.7924 -47.4542 11.0094 7.1250 -0.0000 -0.0000 45.9999 -74.2398 -33.4111
8.8140 15.5197 22.5224 -178.9960 7.9512 179.9370 0.0000 0.0000 0.0000 -26.0828 -21.6980 4.6512 1.3353 7.3170 20.6579 0.6263 15.8253 -27.7703 2.8250 -10.4062 -30.3023 0.0000 0.0000 0.0000 27.0530 18.3396 7.2052 -0.6149 -5.0187 13.9618 1.0648 -22.1716 -22.3900 -0.0317 1.1491 -3.1591 1.2113 0.9833 7.0845 0.7073 1.5812 -4.1800 -0.1629 0.7582 -8.3777 -6.7610 -0.6255 -6.4834 6.2413 -0.6380 10.6072 2.9997 -0.1645 4.2695 -0.0000 -0.0000 0.0000 -90.6072 10.7329 15.6816 18.9763 -29.3892 -5.0192 -0.0000 -0.0000 12.8519 0.3522 -38.6282 -0.2199 -7.1250 0.0000 -0.0000 -17.7457 -7.0517 20.7528 -0.0000 -0.0000 0.0000 84.0269 -12.6430 42.1354 -21.7793 32.7267 -6.4661 0.0000 0.0000 17.1340 -13.8238 -47.6107 10.3004 7.1250 -0.0000 -0.0000 47.3361 -73.9717 -34.2350
8.8158 15.5259 22.5190 -179.0630 7.7970 180.1430 0.0000 0.0000 0.0000 -26.1256 -22.0129 4.5614 1.3282 7.2984 20.6024 0.6300 15.8210 -27.7925 2.7122 -10.2139 -29.6722 0.0000 0.0000 0.0000 26.9028 18.3576 6.9838 -0.6107 -5.0018 13.9136 1.0888 -22.2883 -22.3767 -0.0355 1.2157 -3.3425 1.5910 1.2943 7.0503 0.0512 1.9821 -4.2025 -1.1234 0.9087 -8.3417 -5.4192 -1.0484 -7.0178 6.0433 -1.3102 10.8246 2.6805 -0.4408 4.4612 -0.0000 -0.0000 0.0000 -89.0117 10.5491 17.6644 18.6908 -29.0327 -4.8799 -0.0000 -0.0000 13.3376 0.0757 -38.6309 -0.0473 -7.1250 0.0000 -0.0000 -17.8846 -7.0298 20.9257 -0.0000 -0.0000 0.0000 85.3510 -12.6550 40.6547 -21.5081 32.4166 -6.3201 0.0000 0.0000 18.0044 -13.0323 -47.4713 9.6800 7.1250 -0.0000 -0.0000 47.6533 -73.5944 -34.1413
